<svg xmlns="http://www.w3.org/2000/svg" xmlns:xlink="http://www.w3.org/1999/xlink" version="1.1" x="0px" y="0px" viewBox="0 0 100 125" style="enable-background:new 0 0 100 100;" xml:space="preserve"><path d="M91.3,61.7l-19.6,5.5v0.1c0.5,2,0.2,4-0.8,5.8c-1.1,1.9-2.8,3.3-4.9,3.8c-2.1,0.6-4.3,0.3-6.1-0.7l-11.3-6.3  l1.1-1.9l11.3,6.3c1.4,0.8,3,1,4.5,0.5c1.5-0.4,2.8-1.4,3.5-2.8c0.4-0.7,0.6-1.5,0.7-2.3c0.3-2-0.6-3.9-2.3-4.9L39.8,49.6  c0,0-2.9-1.9-6.7-0.8c0,0,0,0-0.1,0c-0.7,0.1-30.2,8.6-31.5,9H1.3l6,21.2l19.7-5.6c2,1.2,17,10.6,18.9,11.6c3.3,1.9,7.5,0.9,8.4,0.6  c0.1,0,40.3-11.5,40.3-11.5c2.8-0.8,5-4.5,4-8.3C97.8,62.7,94.5,60.8,91.3,61.7z"/><path d="M74.2,42.5c-1.6,0-3.1,0.6-4.3,1.6l-9.8-6.4c0.4-0.9,0.6-1.8,0.6-2.8c0-0.9-0.2-1.8-0.5-2.6l9.9-7.1  c1.1,0.9,2.6,1.4,4.2,1.4c3.7,0,6.8-3,6.8-6.8c0-3.7-3-6.8-6.8-6.8c-3.7,0-6.8,3-6.8,6.8c0,0.8,0.1,1.5,0.4,2.2l-10,7.2  c-1.1-0.8-2.4-1.2-3.8-1.2c-3.7,0-6.8,3-6.8,6.8c0,3.7,3,6.8,6.8,6.8c1.3,0,2.6-0.4,3.6-1.1l10.2,6.6c-0.2,0.6-0.3,1.3-0.3,2.1  c0,3.7,3,6.8,6.8,6.8c3.7,0,6.8-3,6.8-6.8S78,42.5,74.2,42.5z"/><text x="0" y="115" fill="#000000" font-size="5px" font-weight="bold" font-family="'Helvetica Neue', Helvetica, Arial-Unicode, Arial, Sans-serif">Created by Aneeque Ahmed</text><text x="0" y="120" fill="#000000" font-size="5px" font-weight="bold" font-family="'Helvetica Neue', Helvetica, Arial-Unicode, Arial, Sans-serif">from the Noun Project</text></svg>